HIERARCHY
ROOT HipCenter
{
    OFFSET 0.0 0.0 -0.0
    CHANNELS 6 Xposition Yposition Zposition Zrotation Xrotation Yrotation
    JOINT Spine
    {
        OFFSET 0.0 11.542990684509277 0.0
        CHANNELS 3 Zrotation Xrotation Yrotation
        JOINT ShoulderCenter
        {
            OFFSET 0.0 32.914581298828125 0.0
            CHANNELS 3 Zrotation Xrotation Yrotation
            JOINT LeftShoulder
            {
                OFFSET 18.777008056640625 0.0 0.0
                CHANNELS 3 Zrotation Xrotation Yrotation
                JOINT LeftElbow
                {
                    OFFSET 28.852981567382812 0.0 0.0
                    CHANNELS 3 Zrotation Xrotation Yrotation
                    JOINT LeftWrist
                    {
                        OFFSET 29.32755470275879 0.0 0.0
                        CHANNELS 3 Zrotation Xrotation Yrotation
                        JOINT LeftHand
                        {
                            OFFSET 3.7761640548706055 0.0 0.0
                            CHANNELS 3 Zrotation Xrotation Yrotation
                            End Site
                            {
                                OFFSET 1.5104655027389526 0.0 0.0
                            }
                        }
                    }
                }
            }
            JOINT RightShoulder
            {
                OFFSET -18.777008056640625 0.0 0.0
                CHANNELS 3 Zrotation Xrotation Yrotation
                JOINT RightElbow
                {
                    OFFSET -28.852981567382812 0.0 0.0
                    CHANNELS 3 Zrotation Xrotation Yrotation
                    JOINT RightWrist
                    {
                        OFFSET -29.32755470275879 0.0 0.0
                        CHANNELS 3 Zrotation Xrotation Yrotation
                        JOINT RightHand
                        {
                            OFFSET -3.7761640548706055 0.0 0.0
                            CHANNELS 3 Zrotation Xrotation Yrotation
                            End Site
                            {
                                OFFSET -1.5104655027389526 0.0 0.0
                            }
                        }
                    }
                }
            }
            End Site
            {
                OFFSET 0.0 13.16583251953125 0.0
            }
        }
    }
    JOINT LeftHip
    {
        OFFSET 13.483819961547852 0.0 0.0
        CHANNELS 3 Zrotation Xrotation Yrotation
        JOINT LeftKnee
        {
            OFFSET 0.0 -41.178192138671875 0.0
            CHANNELS 3 Zrotation Xrotation Yrotation
            JOINT LeftAnkle
            {
                OFFSET 0.0 -42.33711242675781 0.0
                CHANNELS 3 Zrotation Xrotation Yrotation
                JOINT LeftFoot
                {
                    OFFSET 0.0 -13.491167068481445 0.0
                    CHANNELS 3 Zrotation Xrotation Yrotation
                    End Site
                    {
                        OFFSET 0.0 0.0 5.396467208862305
                    }
                }
            }
        }
    }
    JOINT RightHip
    {
        OFFSET -13.483819961547852 0.0 0.0
        CHANNELS 3 Zrotation Xrotation Yrotation
        JOINT RightKnee
        {
            OFFSET 0.0 -41.178192138671875 0.0
            CHANNELS 3 Zrotation Xrotation Yrotation
            JOINT RightAnkle
            {
                OFFSET 0.0 -42.33711242675781 0.0
                CHANNELS 3 Zrotation Xrotation Yrotation
                JOINT RightFoot
                {
                    OFFSET 0.0 -13.491167068481445 0.0
                    CHANNELS 3 Zrotation Xrotation Yrotation
                    End Site
                    {
                        OFFSET 0.0 0.0 5.396467208862305
                    }
                }
            }
        }
    }
}
MOTION
Frames: 4
Frame Time: 0.03333333333333333
-129.70001220703125 -1.2000000476837158 36.79999923706055 -0.49824203237286274 -1.494273313022719 52.517430670748375 3.101466297590583 2.404270882063157 -0.09949261596764448 -8.251547941082941e-08 -1.701905584968023e-07 4.54151636643341 127.57826126517381 18.118951639876123 -134.3515653121267 -9.299064393613184e-07 1.6837026831473034e-06 64.12923690617514 -4.092465015794439e-06 -17.18892717538628 27.619691785105452 0.0 1.5902773407317584e-15 0.0 -128.32877090940187 3.2057742970328245 134.11255241105792 -5.750007641388967e-07 2.0452080161662423e-06 -63.40306022390478 179.9999945555852 -76.56936424029958 152.4658132061006 0.0 0.0 1.987846675914698e-15 -8.363906679898811 -6.619592236808868 -27.208271641248917 -10.484525111144634 17.61304363680018 -10.086788079601247 86.49079586805875 -54.287803319468566 120.29126391972068 -3.3793393490549868e-15 -4.969616689786722e-17 -7.752602036067322e-15 -4.743083842731864 -24.61205006254234 7.769556830190866 13.828697353396265 67.95929570735159 44.97517681198715 -82.47746325478099 -23.879030030589362 -110.14345239017548 -3.1805546814635168e-15 -2.2069531490250793e-32 7.951386703658792e-16
-128.10000610351562 -1.7000000476837158 38.70000076293945 -1.4814722700629275 -2.467293943084009 56.276413729641945 4.992387497618225 1.3395901612063321 -0.06725511422663127 2.8066299858253746e-08 7.677128953808274e-09 2.4473277408894045 133.15695382247563 20.873341299723027 -129.598211745035 1.34263544649704e-06 -1.3758810103358816e-06 62.950559622477286 3.2445043426130147e-07 -26.052246319503467 29.5351225713942 6.3611093629270335e-15 0.0 0.0 -131.87406562413457 5.731732639791485 127.41591629900755 -1.112574727863112e-06 -1.4014466641489894e-06 -65.21546310556734 -179.99999799499497 -77.5394516037606 154.11667998799842 -1.5902773407317582e-15 0.0 0.0 -6.899069588266721 -5.814781277845324 -28.51729877328347 -11.224386166527049 18.680859034416454 -9.966210889871446 87.94012250523518 -56.811021806444835 119.1784796314031 -7.255640367088649e-15 6.2617170291313e-15 -3.776908684237926e-15 -3.7034048237449797 -27.125749461629507 4.756969278967164 3.4001483700700588 63.34320770996097 55.017060030141735 -84.57743073738409 -24.305037067189218 -126.49327650967223 3.1805546814635168e-15 -6.3611093629270335e-15 1.7655625192200634e-31
-126.40000915527344 -1.7000000476837158 40.5 -1.494348672837744 -0.9960129460732274 60.18503335190653 3.5224148893068365 -0.30365081711928743 0.018218488984210763 -5.320570844600212e-08 7.053347498295728e-08 1.8546004372457523 137.4038512468542 23.80826819172699 -123.79967833185295 1.7719567724813735e-06 3.2362620595109035e-07 60.52834322392175 1.1115513081850245e-06 -24.979896802378402 30.91718765299598 0.0 0.0 0.0 -134.92826064471075 9.284289253565175 122.58985787536437 -3.2686117769642025e-06 2.8481500042039e-06 -66.1881636617193 -179.9999929929492 -82.683017009538 153.22903748559074 1.590277340731758e-15 -2.2069531490250793e-32 -1.590277340731758e-15 -7.974721346122862 -4.766851299735188 -30.313518929760757 -11.087389172800789 18.70010694910277 -10.097523558633204 89.39300357039198 -58.522893841383386 120.61158527032283 1.4908850069360234e-15 -2.715586882589453e-32 -2.087239009710433e-15 -4.903627259757431 -29.111813838838305 2.677104161226174 -2.618340461108452 56.01568705856277 59.17691727674749 -86.12561682984592 -24.6120382201501 -139.74596087070847 6.3611093629270335e-15 1.7655625192200634e-31 3.1805546814635168e-15
-124.60000610351562 -1.7000000476837158 42.29999923706055 -0.9964085797199879 -2.4891577867651518 63.41254446842051 3.987746545606246 1.07360971621731 -0.04617879585517671 7.81913561220449e-08 8.030909030452411e-08 2.4853517273861656 137.82430658331018 26.1660832698188 -115.0523990072044 -2.061395048348298e-07 3.142151297023972e-06 56.69464452372728 -9.694403427407657e-07 -26.323633164203695 32.25820941887561 0.0 3.1805546814635168e-15 0.0 -136.59193651870055 13.977435527043147 117.2783674604365 2.6451907739448762e-06 5.611876942355185e-06 -66.03226754720536 179.9999772703075 -82.70372396972246 153.2581775764938 4.770832022195275e-15 -6.620859447075238e-32 -1.5902773407317584e-15 -6.49564694357771 -1.807499114399653 -31.48456029394338 -10.925345178084982 18.112282740394733 -9.560158615571922 91.2003047669118 -60.435108081337525 121.56644269460719 -1.7890620083232284e-15 1.055199474377616e-31 -6.7586786981099735e-15 -3.800031693375823 -28.374176015662623 1.7139275278768256 -4.197307908704808 46.643361762950306 57.93004204659618 -86.72505173100244 -26.34931882665076 -148.00327894050773 -1.1034765745125397e-32 -3.975693351829395e-16 -3.180554681463516e-15
